<svg width="934" height="934" viewBox="0 0 934 934" fill="none" xmlns="http://www.w3.org/2000/svg">
<path d="M716.92 507.101C711.904 507.086 707.029 505.45 703.019 502.445C699.003 499.44 696.066 495.226 694.638 490.419C693.003 485.403 652.638 362.67 466.665 362.67C280.692 362.67 240.332 485.404 238.692 491.003C236.275 498.982 229.785 505.071 221.661 506.967C213.541 508.863 205.025 506.285 199.322 500.201C193.62 494.118 191.593 485.452 194.01 477.467C195.994 470.467 244.994 316 466.663 316C688.333 316 737.33 470.467 739.317 477.12C741.082 483.094 740.384 489.521 737.379 494.98C734.379 500.433 729.322 504.464 723.332 506.173C721.239 506.74 719.082 507.053 716.916 507.105L716.92 507.101ZM581.933 501.268C581.965 470.689 569.845 441.356 548.24 419.716C526.641 398.076 497.323 385.904 466.745 385.883C436.167 385.862 406.833 397.992 385.204 419.607C363.568 441.216 351.412 470.533 351.401 501.112C351.391 531.691 363.532 561.019 385.147 582.643C406.767 604.268 436.089 616.419 466.668 616.419C497.209 616.387 526.491 604.247 548.1 582.664C569.704 561.08 581.871 531.809 581.933 501.268ZM535.267 501.268C535.267 519.461 528.043 536.908 515.173 549.773C502.309 562.643 484.861 569.867 466.668 569.867C448.475 569.867 431.028 562.643 418.163 549.773C405.293 536.909 398.069 519.461 398.069 501.268C398.069 483.075 405.293 465.628 418.163 452.763C431.027 439.893 448.475 432.669 466.668 432.669C484.861 432.669 502.308 439.893 515.173 452.763C528.043 465.627 535.267 483.075 535.267 501.268Z" fill="black"/>
</svg>
